<?xml version="1.0" standalone="no"?>
<!DOCTYPE svg PUBLIC "-//W3C//DTD SVG 20010904//EN"
 "http://www.w3.org/TR/2001/REC-SVG-20010904/DTD/svg10.dtd">
<svg version="1.0" xmlns="http://www.w3.org/2000/svg"
 width="512.000000pt" height="512.000000pt" viewBox="0 0 512.000000 512.000000"
 preserveAspectRatio="xMidYMid meet">

<g transform="translate(0.000000,512.000000) scale(0.100000,-0.100000)"
fill="#000000" stroke="none">
<path d="M569 4945 c-101 -25 -169 -64 -250 -144 -82 -83 -119 -146 -144 -253
-22 -95 -22 -3241 0 -3336 46 -196 204 -352 401 -398 47 -11 103 -15 176 -12
115 3 138 12 182 72 29 39 29 133 0 172 -44 60 -66 68 -192 74 -126 6 -156 16
-204 67 -61 64 -58 -11 -58 1298 l0 1195 2080 0 2080 0 0 -1195 c0 -1309 3
-1234 -58 -1298 -48 -51 -78 -61 -204 -67 -126 -6 -148 -14 -192 -74 -29 -39
-29 -133 0 -172 44 -60 67 -69 182 -72 185 -6 306 36 423 146 76 71 130 164
154 263 22 97 22 3241 0 3338 -46 194 -202 350 -397 396 -55 13 -316 15 -1993
14 -1591 -1 -1940 -3 -1986 -14z m3946 -324 c22 -10 52 -31 67 -47 54 -58 58
-83 58 -339 l0 -235 -2080 0 -2080 0 0 235 c0 256 4 281 58 339 15 16 45 37
67 47 38 18 112 19 1955 19 1843 0 1917 -1 1955 -19z"/>
<path d="M895 4466 c-101 -44 -125 -178 -46 -257 112 -113 296 -12 267 146
-18 94 -131 151 -221 111z"/>
<path d="M1375 4466 c-101 -44 -125 -178 -46 -257 112 -113 296 -12 267 146
-18 94 -131 151 -221 111z"/>
<path d="M1855 4466 c-101 -44 -125 -178 -46 -257 112 -113 296 -12 267 146
-18 94 -131 151 -221 111z"/>
<path d="M2375 3029 c-543 -68 -1012 -459 -1185 -987 -52 -161 -65 -248 -64
-447 0 -195 15 -290 69 -452 142 -423 485 -766 908 -908 165 -55 257 -69 457
-69 200 0 292 14 457 69 423 142 766 485 908 908 53 158 68 258 69 442 1 261
-39 440 -150 661 -270 542 -864 858 -1469 783z m244 -347 c117 -123 222 -470
249 -819 l8 -103 -316 0 -315 0 3 48 c21 370 130 745 253 874 46 49 72 49 118
0z m-532 -84 c-79 -208 -157 -581 -157 -753 0 -91 18 -85 -245 -85 l-232 0 8
48 c57 309 251 585 530 753 85 50 105 58 96 37z m1043 -38 c100 -60 156 -104
238 -190 143 -146 254 -363 291 -562 l8 -48 -232 0 c-263 0 -245 -6 -245 85 0
172 -78 545 -157 753 -9 21 11 13 97 -38z m-1206 -1136 c3 -9 6 -40 6 -69 0
-146 55 -437 120 -640 22 -65 37 -121 35 -123 -6 -7 -126 63 -195 114 -214
158 -381 424 -429 687 l-8 47 232 0 c203 0 234 -2 239 -16z m944 -81 c-28
-360 -131 -701 -249 -825 -46 -49 -72 -49 -118 0 -117 123 -225 477 -249 820
l-8 102 316 0 316 0 -8 -97z m791 50 c-48 -263 -215 -529 -429 -687 -69 -51
-189 -121 -195 -114 -2 2 13 58 35 123 65 203 120 494 120 640 0 91 -18 85
245 85 l232 0 -8 -47z"/>
</g>
</svg>
