<?xml version="1.0" standalone="no"?>
<!DOCTYPE svg PUBLIC "-//W3C//DTD SVG 20010904//EN"
 "http://www.w3.org/TR/2001/REC-SVG-20010904/DTD/svg10.dtd">
<svg version="1.0" xmlns="http://www.w3.org/2000/svg"
 width="512.000000pt" height="512.000000pt" viewBox="0 0 512.000000 512.000000"
 preserveAspectRatio="xMidYMid meet">

<g transform="translate(0.000000,512.000000) scale(0.100000,-0.100000)"
fill="#000000" stroke="none">
<path d="M299 4737 c-129 -44 -236 -155 -277 -287 -16 -51 -17 -183 -17 -1890
0 -2058 -6 -1883 74 -2008 51 -77 139 -144 228 -172 64 -20 90 -20 2195 -20
2372 0 2169 -6 2226 68 l27 35 3 1751 2 1751 -188 -188 -189 -189 -90 7 c-97
8 -127 0 -169 -47 -54 -59 -61 -98 -38 -213 12 -63 -96 -164 -185 -173 -65 -6
-98 13 -201 114 l-85 84 -452 -453 c-442 -442 -453 -454 -487 -529 l-35 -77
510 -3 511 -3 24 -28 24 -28 0 -555 c0 -570 -1 -582 -39 -611 -12 -9 -153 -12
-584 -13 l-568 0 -24 26 c-14 15 -25 35 -25 45 0 18 -11 19 -175 19 l-175 0 0
265 0 265 175 0 175 0 0 216 0 216 -32 -20 c-133 -80 -274 -152 -301 -152 -25
0 -46 15 -114 83 -64 64 -83 90 -83 111 0 23 69 159 195 381 35 62 62 81 196
140 l124 55 452 453 453 452 -84 85 c-92 93 -116 131 -116 184 0 48 15 83 56
133 54 66 84 78 156 63 72 -16 122 -4 173 41 47 42 58 83 50 181 l-7 81 188
188 189 189 -1800 0 -1800 -1 -66 -22z m2236 -612 c19 -18 25 -35 25 -65 0
-85 -90 -121 -151 -61 -41 41 -37 102 10 138 28 22 89 16 116 -12z m352 1 c61
-53 21 -156 -62 -156 -21 0 -44 9 -62 24 -61 53 -21 156 62 156 21 0 44 -9 62
-24z m-374 -338 c46 -24 46 -28 47 -346 l0 -303 -25 -24 c-16 -17 -35 -25 -59
-25 -94 0 -96 9 -96 360 l0 292 29 29 c31 31 67 37 104 17z m351 2 c33 -12 60
-64 51 -99 -11 -45 -44 -71 -90 -71 -70 0 -112 67 -81 128 26 49 65 63 120 42z
m-1297 -95 c90 -38 112 -88 113 -248 0 -125 -11 -170 -53 -215 -48 -52 -51
-52 -434 -52 -406 0 -401 -1 -458 79 -30 42 -30 45 -30 169 0 149 5 169 47
218 55 63 57 63 436 64 286 0 349 -3 379 -15z m-22 -876 c49 -12 101 -58 121
-106 17 -38 19 -240 4 -294 -14 -50 -72 -105 -125 -118 -57 -14 -656 -15 -707
-1 -45 13 -93 51 -116 94 -24 44 -25 287 0 331 23 43 60 75 105 90 49 18 650
21 718 4z m2583 -465 c20 -23 22 -35 22 -150 0 -119 -1 -126 -25 -149 -18 -19
-35 -25 -65 -25 -30 0 -47 6 -65 25 -24 23 -25 30 -25 147 0 97 3 128 16 146
34 48 102 51 142 6z m-2549 -429 c39 -20 78 -68 92 -113 6 -22 9 -88 7 -158
-3 -113 -5 -123 -31 -163 -52 -79 -62 -81 -454 -81 -218 0 -352 4 -370 11 -35
13 -79 54 -101 94 -14 24 -17 58 -17 167 0 135 0 137 30 179 57 80 52 79 458
79 295 0 363 -3 386 -15z m2549 -101 c20 -23 22 -35 22 -150 0 -119 -1 -126
-25 -149 -35 -36 -97 -35 -130 1 -24 26 -25 33 -25 148 0 95 3 126 16 144 34
48 102 51 142 6z"/>
</g>
</svg>
